<svg width="1497" height="771" viewBox="0 0 1497 771" fill="none" xmlns="http://www.w3.org/2000/svg">
<g filter="url(#filter0_d_243_4)">
<path d="M1325.29 0C1099.78 -4.05542e-05 703.266 381.833 659.062 460.611C756.944 362.397 1110.58 82.7975 1273.19 89.2284C1506.23 98.4442 1431 326.367 1273.19 481.512C1484.75 370.579 1599.99 4.9399e-05 1325.29 0Z" fill="#00B476"/>
<path d="M1317.4 402.854L1308.93 415.595C1291.28 403.082 1271.96 391.272 1251.53 380.551C1274.41 385.583 1296.54 393.223 1317.4 402.854Z" fill="#00B476"/>
<path d="M1364.76 430.775C1493.92 512.532 1547.43 667.87 1357.67 700.629C1163.96 734.069 965.634 629.219 922.786 581.324C1017.77 632.361 1164.04 677.205 1303 648.801C1457.29 617.264 1438.05 525.544 1350.51 448.553L1364.76 430.775Z" fill="#00B476"/>
<path fill-rule="evenodd" clip-rule="evenodd" d="M741.157 599.677C831.4 599.677 904.557 525.178 904.557 433.279C904.557 405.389 897.819 379.103 885.911 356.014C895.831 376.672 901.4 399.892 901.4 424.436C901.4 510.564 832.837 580.385 748.261 580.385C663.685 580.385 595.123 510.564 595.123 424.436C595.123 338.308 663.685 268.488 748.261 268.488C761.675 268.488 774.686 270.244 787.084 273.543C772.515 269.206 757.102 266.88 741.157 266.88C650.913 266.88 577.756 341.379 577.756 433.279C577.756 525.178 650.913 599.677 741.157 599.677Z" fill="white"/>
<path d="M926.659 432.476C926.659 536.362 843.96 620.579 741.946 620.579C639.931 620.579 557.232 536.362 557.232 432.476C557.232 328.59 639.931 244.373 741.946 244.373C771.23 244.373 798.923 251.313 823.525 263.666L804.775 279.964C785.222 271.54 763.724 266.881 741.156 266.881C650.913 266.881 577.756 341.38 577.756 433.28C577.756 525.179 650.913 599.679 741.156 599.679C831.4 599.679 904.557 525.179 904.557 433.28C904.557 387.888 886.709 346.742 857.77 316.72L875.989 303.055C907.394 336.774 926.659 382.334 926.659 432.476Z" fill="white"/>
<path fill-rule="evenodd" clip-rule="evenodd" d="M406.969 671.755C408.065 671.368 409.157 670.98 410.246 670.59C409.161 670.994 408.069 671.382 406.969 671.755Z" fill="white"/>
<circle cx="65.3086" cy="286.902" r="52.5499" transform="rotate(-1.49421 65.3086 286.902)" fill="white"/>
<path d="M7.09564 187.01C23.5363 178.076 42.3785 173 62.4062 173C66.4482 173 70.442 173.207 74.3774 173.61C87.9282 125.574 131.936 92.617 217.62 89.2284C319.278 85.2081 495.593 192.975 637.406 298.327L660.147 279.5C513.418 148.584 306.2 0 165.521 0C33.4193 0 -8.50385 85.6993 7.09564 187.01ZM133.662 380.541C126.368 386.227 118.377 391.06 109.838 394.891C140.988 430.217 177.579 460.515 217.62 481.512C185.608 450.039 156.994 415.571 133.662 380.541Z" fill="white"/>
<path d="M133.739 439C-6.49929 567 17.0004 662.5 301.679 657.098L311.85 656.616C315.54 665.683 320.241 674.23 325.809 682.117C270.529 698.843 200.339 712.583 133.739 700.631C-56.0264 667.871 4.57958 520.757 133.739 439Z" fill="white"/>
<path fill-rule="evenodd" clip-rule="evenodd" d="M332.437 608.655C332.437 554.741 376.142 511.035 430.056 511.035C483.97 511.035 527.676 554.741 527.676 608.655C527.676 628.541 521.729 647.038 511.518 662.466C500.196 679.572 483.63 694.551 464.111 701.817C440.019 710.787 405.42 708.746 374.674 689.055C349.158 671.445 332.437 642.003 332.437 608.655ZM426.557 678.874C467.67 678.475 500.675 644.822 500.276 603.709C499.876 562.596 466.224 529.591 425.111 529.991C383.998 530.39 350.993 564.043 351.392 605.156C351.792 646.269 385.444 679.273 426.557 678.874Z" fill="white"/>
</g>
<defs>
<filter id="filter0_d_243_4" x="0" y="0" width="1490.81" height="715.092" filterUnits="userSpaceOnUse" color-interpolation-filters="sRGB">
<feFlood flood-opacity="0" result="BackgroundImageFix"/>
<feColorMatrix in="SourceAlpha" type="matrix" values="0 0 0 0 0 0 0 0 0 0 0 0 0 0 0 0 0 0 127 0" result="hardAlpha"/>
<feOffset dy="4"/>
<feGaussianBlur stdDeviation="2"/>
<feComposite in2="hardAlpha" operator="out"/>
<feColorMatrix type="matrix" values="0 0 0 0 0 0 0 0 0 0 0 0 0 0 0 0 0 0 0.25 0"/>
<feBlend mode="normal" in2="BackgroundImageFix" result="effect1_dropShadow_243_4"/>
<feBlend mode="normal" in="SourceGraphic" in2="effect1_dropShadow_243_4" result="shape"/>
</filter>
</defs>
</svg>
